<svg width="1600" height="324" viewBox="0 0 1600 324" fill="none" xmlns="http://www.w3.org/2000/svg">
<g clip-path="url(#clip0_171_5403)">
<rect width="1600" height="324" fill="#E10600"/>
<rect width="1600" height="324" fill="url(#paint0_radial_171_5403)" fill-opacity="0.48"/>
<g style="mix-blend-mode:soft-light" clip-path="url(#clip1_171_5403)">
<path d="M561.366 -327.928H479.94L224.799 -72.7772H199.54L-127.769 254.552H-101.074L226.225 -72.7622L306.21 -72.7622L561.366 -327.928Z" fill="black"/>
<path d="M7.32406 323.067L262.49 67.9114H181.053L-74.1026 323.067H7.32406Z" fill="black"/>
<path d="M-410.217 8.71905L44.0578 -445.56H-37.3789L-491.653 8.71905H-410.217Z" fill="black"/>
<path d="M35.5671 -183.934H-21.3798L-615.545 410.211H-558.583L35.5671 -183.934Z" fill="black"/>
<path d="M-400.201 8.71905H-323.883L130.391 -445.56H54.0787L-400.201 8.71905Z" fill="black"/>
<path d="M691.994 352.023L800 244.017V203.537L651.524 352.023H691.994Z" fill="black"/>
<path d="M761.344 153.075H788.039L800 141.114V114.419L761.344 153.075Z" fill="black"/>
<path d="M800.001 248.994L696.973 352.022H734.916L800.001 286.937V248.994Z" fill="black"/>
<path d="M-141.443 520.242L-316.584 695.398H-278.656L-103.515 520.257H-75.0369L122.152 323.068H93.6688L-103.505 520.242H-141.443Z" fill="black"/>
<path d="M272.513 67.9114L17.3566 323.067H93.6694L348.825 67.9114H272.513Z" fill="black"/>
<path d="M9.34412 819.716H62.7193L729.359 153.076H675.984L9.34412 819.716Z" fill="black"/>
<path d="M729.359 153.075H757.842L800 110.918V82.4393L729.359 153.075Z" fill="black"/>
<path d="M125.654 323.068L-71.5349 520.257H-44.8397L152.35 323.068H125.654Z" fill="black"/>
<path d="M42.5857 -183.934L-551.574 410.211H-498.199L95.9609 -183.934H42.5857Z" fill="black"/>
<path d="M668.981 153.076H612.019L-54.6111 819.716H2.34094L668.981 153.076Z" fill="black"/>
<path d="M619.735 -20.142L591.257 -20.142L271.573 299.552H300.057L619.735 -20.142Z" fill="black"/>
<path d="M196.038 -72.7786H167.56L-159.754 254.536L-131.271 254.551L196.038 -72.7786Z" fill="black"/>
<path d="M589.86 -107.646L414.719 67.5105H452.647L627.803 -107.646L589.86 -107.646Z" fill="black"/>
<path d="M409.721 67.5105L584.877 -107.646L544.397 -107.646L369.256 67.5105H409.721Z" fill="black"/>
<path d="M649.891 -20.0963L690.316 -20.0963L800 -129.79V-170.26L649.876 -20.1415H623.236L303.558 299.552H330.238L649.891 -20.0963Z" fill="black"/>
</g>
<g style="mix-blend-mode:soft-light" clip-path="url(#clip2_171_5403)">
<path d="M1985.37 -327.928H1903.94L1648.8 -72.7772H1623.54L1296.23 254.552H1322.93L1650.23 -72.7622L1730.21 -72.7622L1985.37 -327.928Z" fill="black"/>
<path d="M1431.32 323.067L1686.49 67.9114H1605.05L1349.9 323.067H1431.32Z" fill="black"/>
<path d="M1013.78 8.71905L1468.06 -445.56H1386.62L932.347 8.71905H1013.78Z" fill="black"/>
<path d="M800 114.363V141.048L932.345 8.71802L905.65 8.71802L800 114.363Z" fill="black"/>
<path d="M872.128 176.866L800 248.994V286.937L910.071 176.866H872.128Z" fill="black"/>
<path d="M1459.57 -183.934H1402.62L808.455 410.211H865.417L1459.57 -183.934Z" fill="black"/>
<path d="M1023.8 8.71905H1100.12L1554.39 -445.56H1478.08L1023.8 8.71905Z" fill="black"/>
<path d="M800 203.536V244.016L867.15 176.866H826.665L800 203.536Z" fill="black"/>
<path d="M873.665 8.71802L800 82.3833V110.862L902.144 8.71802H873.665Z" fill="black"/>
<path d="M1158.35 254.535L1313.98 98.9058H1292.76L1137.14 254.535H1158.35Z" fill="black"/>
<path d="M1282.56 520.242L1107.42 695.398H1145.34L1320.48 520.257H1348.96L1546.15 323.068H1517.67L1320.49 520.242H1282.56Z" fill="black"/>
<path d="M1696.51 67.9114L1441.36 323.067H1517.67L1772.83 67.9114H1696.51Z" fill="black"/>
<path d="M1433.34 819.716H1486.72L2153.36 153.076H2099.98L1433.34 819.716Z" fill="black"/>
<path d="M1549.65 323.068L1352.47 520.257H1379.16L1576.35 323.068H1549.65Z" fill="black"/>
<path d="M1466.59 -183.934L872.425 410.211H925.801L1519.96 -183.934H1466.59Z" fill="black"/>
<path d="M2092.98 153.076H2036.02L1369.39 819.716H1426.34L2092.98 153.076Z" fill="black"/>
<path d="M1082.72 436.082L1264.25 254.536H1226.32L1044.77 436.082H1071.76H1082.72Z" fill="black"/>
<path d="M1620.04 -72.7786H1591.56L1264.25 254.536L1292.73 254.551L1620.04 -72.7786Z" fill="black"/>
<path d="M1316.59 98.9058L1160.96 254.535H1180.86L1336.49 98.9058H1316.59Z" fill="black"/>
<path d="M1221.34 254.536H1180.86L999.35 436.042L1039.79 436.082L1221.34 254.536Z" fill="black"/>
</g>
</g>
<defs>
<radialGradient id="paint0_radial_171_5403" cx="0" cy="0" r="1" gradientUnits="userSpaceOnUse" gradientTransform="translate(800 162) scale(800 648)">
<stop stop-color="#15151E" stop-opacity="0.3"/>
<stop offset="1" stop-color="#15151E"/>
</radialGradient>
<clipPath id="clip0_171_5403">
<rect width="1600" height="324" fill="white"/>
</clipPath>
<clipPath id="clip1_171_5403">
<rect width="1424" height="1424" fill="white" transform="translate(-624 -550)"/>
</clipPath>
<clipPath id="clip2_171_5403">
<rect width="1424" height="1424" fill="white" transform="translate(800 -550)"/>
</clipPath>
</defs>
</svg>
